<?xml version="1.0" encoding="UTF-8" standalone="no"?>
<svg
   viewBox="0 0 576 512"
   version="1.1"
   id="svg2"
   sodipodi:docname="file-pen.svg"
   inkscape:version="1.3.2 (091e20e, 2023-11-25, custom)"
   xmlns:inkscape="http://www.inkscape.org/namespaces/inkscape"
   xmlns:sodipodi="http://sodipodi.sourceforge.net/DTD/sodipodi-0.dtd"
   xmlns="http://www.w3.org/2000/svg"
   xmlns:svg="http://www.w3.org/2000/svg">
  <sodipodi:namedview
     id="namedview2"
     pagecolor="#505050"
     bordercolor="#ffffff"
     borderopacity="1"
     inkscape:showpageshadow="0"
     inkscape:pageopacity="0"
     inkscape:pagecheckerboard="1"
     inkscape:deskcolor="#505050"
     inkscape:zoom="1.6816406"
     inkscape:cx="288.1115"
     inkscape:cy="256"
     inkscape:window-width="1920"
     inkscape:window-height="1057"
     inkscape:window-x="-8"
     inkscape:window-y="-8"
     inkscape:window-maximized="1"
     inkscape:current-layer="svg2" />
  <!--! Font Awesome Pro 6.5.1 by @fontawesome - https://fontawesome.com License - https://fontawesome.com/license (Commercial License) Copyright 2023 Fonticons, Inc. -->
  <defs
     id="defs1">
    <style
       id="style1">.fa-secondary{opacity:.4}</style>
  </defs>
  <path
     class="fa-secondary"
     d="M0 64C0 28.7 28.7 0 64 0H224V128c0 17.7 14.3 32 32 32H384V299.5l-94.7 94.7c-8.2 8.2-14 18.5-16.8 29.7l-15 60.1c-2.3 9.4-1.8 19.1 1.4 27.9H64c-35.3 0-64-28.7-64-64V64z"
     id="path1"
     style="fill:#ffffff;fill-opacity:1" />
  <path
     class="fa-primary"
     d="M384 160H256c-17.7 0-32-14.3-32-32V0L384 160zm165.9 75.7l14.4 14.4c15.6 15.6 15.6 40.9 0 56.6l-29.4 29.5-71-71 29.4-29.4c15.6-15.6 40.9-15.6 56.6 0zM311.9 417.1L441.2 287.8l71 71L382.9 488.1c-4.1 4.1-9.2 7-14.9 8.4l-60.2 15c-5.5 1.4-11.2-.2-15.2-4.2s-5.6-9.7-4.2-15.2l15-60.2c1.4-5.6 4.3-10.8 8.4-14.9z"
     id="path2"
     style="fill:#ffffff;fill-opacity:1" />
</svg>
