<?xml version="1.0" encoding="UTF-8" standalone="no"?>
<svg
   viewBox="0 0 512 512"
   version="1.1"
   id="svg2"
   sodipodi:docname="folder-arrow-down.svg"
   inkscape:version="1.3.2 (091e20e, 2023-11-25, custom)"
   xmlns:inkscape="http://www.inkscape.org/namespaces/inkscape"
   xmlns:sodipodi="http://sodipodi.sourceforge.net/DTD/sodipodi-0.dtd"
   xmlns="http://www.w3.org/2000/svg"
   xmlns:svg="http://www.w3.org/2000/svg">
  <sodipodi:namedview
     id="namedview2"
     pagecolor="#505050"
     bordercolor="#ffffff"
     borderopacity="1"
     inkscape:showpageshadow="0"
     inkscape:pageopacity="0"
     inkscape:pagecheckerboard="1"
     inkscape:deskcolor="#505050"
     inkscape:zoom="1.6816406"
     inkscape:cx="256"
     inkscape:cy="256"
     inkscape:window-width="1920"
     inkscape:window-height="1057"
     inkscape:window-x="-8"
     inkscape:window-y="-8"
     inkscape:window-maximized="1"
     inkscape:current-layer="svg2" />
  <!--! Font Awesome Pro 6.5.1 by @fontawesome - https://fontawesome.com License - https://fontawesome.com/license (Commercial License) Copyright 2023 Fonticons, Inc. -->
  <defs
     id="defs1">
    <style
       id="style1">.fa-secondary{opacity:.4}</style>
  </defs>
  <path
     class="fa-secondary"
     d="M512 416c0 35.3-28.7 64-64 64H64c-35.3 0-64-28.7-64-64V96C0 60.7 28.7 32 64 32H192c20.1 0 39.1 9.5 51.2 25.6l19.2 25.6c6 8.1 15.5 12.8 25.6 12.8H448c35.3 0 64 28.7 64 64V416zM280 200c0-13.3-10.7-24-24-24s-24 10.7-24 24V302.1l-31-31c-9.4-9.4-24.6-9.4-33.9 0s-9.4 24.6 0 33.9l72 72c9.4 9.4 24.6 9.4 33.9 0l72-72c9.4-9.4 9.4-24.6 0-33.9s-24.6-9.4-33.9 0l-31 31V200z"
     id="path1"
     style="fill:#ffffff;fill-opacity:1" />
  <path
     class="fa-primary"
     d="M256 176c13.3 0 24 10.7 24 24V302.1l31-31c9.4-9.4 24.6-9.4 33.9 0s9.4 24.6 0 33.9l-72 72c-9.4 9.4-24.6 9.4-33.9 0l-72-72c-9.4-9.4-9.4-24.6 0-33.9s24.6-9.4 33.9 0l31 31V200c0-13.3 10.7-24 24-24z"
     id="path2"
     style="fill:#ffffff;fill-opacity:1" />
</svg>
