<?xml version="1.0" encoding="UTF-8" standalone="no"?>
<svg
   viewBox="0 0 448 512"
   version="1.1"
   id="svg2"
   sodipodi:docname="minus.svg"
   inkscape:version="1.3.2 (091e20e, 2023-11-25, custom)"
   xmlns:inkscape="http://www.inkscape.org/namespaces/inkscape"
   xmlns:sodipodi="http://sodipodi.sourceforge.net/DTD/sodipodi-0.dtd"
   xmlns="http://www.w3.org/2000/svg"
   xmlns:svg="http://www.w3.org/2000/svg">
  <sodipodi:namedview
     id="namedview2"
     pagecolor="#505050"
     bordercolor="#ffffff"
     borderopacity="1"
     inkscape:showpageshadow="0"
     inkscape:pageopacity="0"
     inkscape:pagecheckerboard="1"
     inkscape:deskcolor="#505050"
     inkscape:zoom="1.6816406"
     inkscape:cx="223.8885"
     inkscape:cy="256"
     inkscape:window-width="1920"
     inkscape:window-height="1057"
     inkscape:window-x="-8"
     inkscape:window-y="-8"
     inkscape:window-maximized="1"
     inkscape:current-layer="svg2" />
  <!--! Font Awesome Pro 6.5.1 by @fontawesome - https://fontawesome.com License - https://fontawesome.com/license (Commercial License) Copyright 2023 Fonticons, Inc. -->
  <defs
     id="defs1">
    <style
       id="style1">.fa-secondary{opacity:.4}</style>
  </defs>
  <path
     class="fa-secondary"
     d="M432 256c0 17.7-14.3 32-32 32L48 288c-17.7 0-32-14.3-32-32s14.3-32 32-32l352 0c17.7 0 32 14.3 32 32z"
     id="path1"
     style="fill:#f9f9f9;fill-opacity:1" />
  <path
     class="fa-primary"
     d=""
     id="path2"
     style="fill:#f9f9f9;fill-opacity:1" />
  <path
     style="fill:#f9f9f9;fill-opacity:1;stroke-width:0.594657"
     d="M 40.005284,286.60164 C 26.124041,282.8629 16.552895,270.52799 16.522076,256.33743 c -0.01336,-6.15221 0.655288,-9.09993 3.308998,-14.5876 3.751009,-7.7568 12.908966,-14.89548 21.341468,-16.63579 2.22148,-0.45847 55.751038,-0.60055 184.499928,-0.4897 l 181.3705,0.15615 3.54468,1.33704 c 15.12909,5.70667 23.83483,21.61906 20.21935,36.95704 -2.64136,11.20551 -11.79446,20.60925 -22.94992,23.57838 -4.75848,1.26652 -363.144562,1.21652 -367.851796,-0.0513 z"
     id="path3" />
</svg>
