<?xml version="1.0" encoding="UTF-8" standalone="no"?>
<svg
   viewBox="0 0 512 512"
   version="1.1"
   id="svg2"
   sodipodi:docname="pencil.svg"
   inkscape:version="1.3.2 (091e20e, 2023-11-25, custom)"
   xmlns:inkscape="http://www.inkscape.org/namespaces/inkscape"
   xmlns:sodipodi="http://sodipodi.sourceforge.net/DTD/sodipodi-0.dtd"
   xmlns="http://www.w3.org/2000/svg"
   xmlns:svg="http://www.w3.org/2000/svg">
  <sodipodi:namedview
     id="namedview2"
     pagecolor="#505050"
     bordercolor="#ffffff"
     borderopacity="1"
     inkscape:showpageshadow="0"
     inkscape:pageopacity="0"
     inkscape:pagecheckerboard="1"
     inkscape:deskcolor="#505050"
     inkscape:zoom="0.84082031"
     inkscape:cx="-43.409988"
     inkscape:cy="322.89895"
     inkscape:window-width="1920"
     inkscape:window-height="1057"
     inkscape:window-x="-8"
     inkscape:window-y="-8"
     inkscape:window-maximized="1"
     inkscape:current-layer="svg2" />
  <!--! Font Awesome Pro 6.5.1 by @fontawesome - https://fontawesome.com License - https://fontawesome.com/license (Commercial License) Copyright 2023 Fonticons, Inc. -->
  <defs
     id="defs1">
    <style
       id="style1">.fa-secondary{opacity:.4}</style>
    <filter
       style="color-interpolation-filters:sRGB;"
       inkscape:label="Fade to Black or White"
       id="filter16"
       x="0"
       y="0"
       width="1"
       height="1">
      <feComposite
         in2="SourceGraphic"
         operator="arithmetic"
         k1="0"
         k2="0"
         result="composite1"
         id="feComposite15" />
      <feColorMatrix
         in="composite1"
         values="1"
         type="saturate"
         result="colormatrix1"
         id="feColorMatrix15" />
      <feFlood
         flood-opacity="1"
         flood-color="rgb(255,255,255)"
         result="flood1"
         id="feFlood15" />
      <feBlend
         in="flood1"
         in2="colormatrix1"
         mode="normal"
         result="blend1"
         id="feBlend15" />
      <feBlend
         in2="blend1"
         mode="normal"
         result="blend2"
         id="feBlend16" />
      <feColorMatrix
         in="blend2"
         values="1"
         type="saturate"
         result="colormatrix2"
         id="feColorMatrix16" />
      <feComposite
         in="colormatrix2"
         in2="SourceGraphic"
         operator="in"
         k2="1"
         result="fbSourceGraphic"
         id="feComposite16" />
      <feColorMatrix
         result="fbSourceGraphicAlpha"
         in="fbSourceGraphic"
         values="0 0 0 -1 0 0 0 0 -1 0 0 0 0 -1 0 0 0 0 1 0"
         id="feColorMatrix17" />
      <feComponentTransfer
         id="feComponentTransfer17"
         in="blur"
         result="fbSourceGraphic">
        <feFuncR
           id="feFuncR17"
           type="gamma"
           amplitude="20"
           exponent="0"
           offset="0.933131" />
        <feFuncG
           id="feFuncG17"
           type="gamma"
           amplitude="20"
           exponent="0"
           offset="0.933131" />
        <feFuncB
           id="feFuncB17"
           type="gamma"
           amplitude="20"
           exponent="0"
           offset="0.933131" />
      </feComponentTransfer>
      <feColorMatrix
         result="fbSourceGraphicAlpha"
         in="fbSourceGraphic"
         values="0 0 0 -1 0 0 0 0 -1 0 0 0 0 -1 0 0 0 0 1 0"
         id="feColorMatrix18" />
      <feColorMatrix
         id="feColorMatrix19"
         values="1 0 0 0 0 0 1 0 0 0 0 0 1 0 0 0 0 0 1 0"
         in="fbSourceGraphic" />
    </filter>
    <filter
       style="color-interpolation-filters:sRGB;"
       inkscape:label="Brilliance"
       id="filter20"
       x="0"
       y="0"
       width="1"
       height="1">
      <feColorMatrix
         values="10 -0.5 -0.5 0 10 -0.5 10 -0.5 0 10 -0.5 -0.5 10 0 10 0 0 0 1 0 "
         id="feColorMatrix20" />
    </filter>
  </defs>
  <g
     id="g3"
     style="filter:url(#filter16)">
    <path
       class="fa-secondary"
       d="M492.7 58.2c25 25 25 65.5 0 90.5l-60 60L302.7 78.7l60-60c25-25 65.5-25 90.5 0l39.4 39.4zM315.3 186.7l-144 144c-6.2 6.2-16.4 6.2-22.6 0s-6.2-16.4 0-22.6l144-144c6.2-6.2 16.4-6.2 22.6 0s6.2 16.4 0 22.6z"
       id="path1" />
    <path
       class="fa-primary"
       d="M432.7 208.7L302.7 78.7 58.6 322.9c-10.4 10.4-18 23.3-22.2 37.4L1 480.7c-2.5 8.4-.2 17.5 6.1 23.7s15.3 8.5 23.7 6.1l120.3-35.4c14.1-4.2 27-11.8 37.4-22.2L432.7 208.7zM89.3 360.5l22.7-9.1v32c0 8.8 7.2 16 16 16h32l-9.1 22.7c-4 3.1-8.5 5.4-13.3 6.9L59.4 452l23-78.1c1.4-4.9 3.8-9.4 6.9-13.3zm226-196.4c6.2 6.2 6.2 16.4 0 22.6l-144 144c-6.2 6.2-16.4 6.2-22.6 0s-6.2-16.4 0-22.6l144-144c6.2-6.2 16.4-6.2 22.6 0z"
       id="path2"
       style="filter:url(#filter20)" />
  </g>
</svg>
