<?xml version="1.0" encoding="UTF-8" standalone="no"?>
<svg
   viewBox="0 0 448 512"
   version="1.1"
   id="svg2"
   sodipodi:docname="plus.svg"
   inkscape:version="1.3.2 (091e20e, 2023-11-25, custom)"
   xmlns:inkscape="http://www.inkscape.org/namespaces/inkscape"
   xmlns:sodipodi="http://sodipodi.sourceforge.net/DTD/sodipodi-0.dtd"
   xmlns="http://www.w3.org/2000/svg"
   xmlns:svg="http://www.w3.org/2000/svg">
  <sodipodi:namedview
     id="namedview2"
     pagecolor="#505050"
     bordercolor="#ffffff"
     borderopacity="1"
     inkscape:showpageshadow="0"
     inkscape:pageopacity="0"
     inkscape:pagecheckerboard="1"
     inkscape:deskcolor="#505050"
     inkscape:zoom="1.6816406"
     inkscape:cx="223.8885"
     inkscape:cy="256"
     inkscape:window-width="1920"
     inkscape:window-height="1057"
     inkscape:window-x="-8"
     inkscape:window-y="-8"
     inkscape:window-maximized="1"
     inkscape:current-layer="svg2" />
  <!--! Font Awesome Pro 6.5.1 by @fontawesome - https://fontawesome.com License - https://fontawesome.com/license (Commercial License) Copyright 2023 Fonticons, Inc. -->
  <defs
     id="defs1">
    <style
       id="style1">.fa-secondary{opacity:.4}</style>
  </defs>
  <path
     class="fa-secondary"
     d="M256 80c0-17.7-14.3-32-32-32s-32 14.3-32 32V224H48c-17.7 0-32 14.3-32 32s14.3 32 32 32H192V432c0 17.7 14.3 32 32 32s32-14.3 32-32V288H400c17.7 0 32-14.3 32-32s-14.3-32-32-32H256V80z"
     id="path1"
     style="fill:#ffffff;fill-opacity:0.40000001" />
  <path
     class="fa-primary"
     d=""
     id="path2"
     style="fill:#ffffff;fill-opacity:0.40000001" />
  <path
     style="fill:#f9f9f9;fill-opacity:0.4;stroke-width:0.594657"
     d="m 216.02387,462.62022 c -10.31543,-2.77833 -18.84561,-10.81985 -22.32301,-21.04423 l -1.3292,-3.90816 -0.16406,-75.0755 -0.16407,-75.07549 H 117.38562 42.727699 l -4.427133,-1.48614 c -7.382222,-2.47813 -12.874028,-6.69096 -16.998924,-13.04007 -6.510833,-10.02159 -6.510833,-23.95967 0,-33.98126 4.124896,-6.34911 9.616702,-10.56194 16.998924,-13.04007 l 4.427133,-1.48614 h 74.657921 74.65791 l 0.16407,-75.07549 0.16406,-75.075498 1.3292,-3.908166 c 6.16334,-18.121624 26.20465,-26.93637 43.5705,-19.163557 6.93074,3.102145 13.48448,10.144578 16.48138,17.710372 l 1.6526,4.172036 0.16184,75.670153 0.16185,75.67015 h 74.38182 c 82.34298,0 77.97283,-0.19793 85.25733,3.86129 6.71571,3.74227 12.07594,10.16152 14.65163,17.54637 1.07007,3.06801 1.34813,5.15317 1.34813,10.10918 0,4.95601 -0.27806,7.04117 -1.34813,10.10918 -3.42646,9.82415 -11.60511,17.60194 -21.35076,20.30433 -3.77805,1.04762 -7.73981,1.10333 -78.4595,1.10333 h -74.48052 l -0.16185,75.67015 -0.16184,75.67015 -1.6526,4.17204 c -3.85983,9.74427 -12.01785,17.00608 -22.13063,19.69943 -3.82404,1.01846 -11.61547,0.96432 -15.59824,-0.10839 z"
     id="path3" />
  <path
     style="fill:#f9f9f9;fill-opacity:0.4;stroke-width:0.594657"
     d="m 213.94089,461.57654 c -8.12664,-2.83059 -14.49941,-8.69916 -18.53674,-17.07015 l -2.43783,-5.05459 -0.36331,-73.44019 c -0.19982,-40.3921 -0.40052,-74.57746 -0.44599,-75.96748 l -0.0827,-2.52729 H 117.7776 43.480868 l -4.346706,-1.55255 c -6.01235,-2.14748 -10.552005,-5.02102 -14.147787,-8.95538 -10.975757,-12.00923 -10.992203,-29.99059 -0.03839,-41.97581 3.800431,-4.15827 7.494188,-6.53468 13.647968,-8.78054 l 4.848281,-1.7694 h 74.219416 74.21942 l 0.39181,-16.50174 c 0.21549,-9.07596 0.39232,-42.92073 0.39296,-75.21058 l 10e-4,-58.708846 1.46672,-3.896728 c 3.6534,-9.706171 10.80411,-16.636755 20.5583,-19.925441 4.7587,-1.604427 13.00186,-1.785889 17.68031,-0.389208 8.73328,2.607194 16.08748,9.053389 20.33124,17.820981 l 2.40245,4.96346 v 61.555982 c 0,33.85579 0.17661,68.02161 0.39245,75.92405 l 0.39244,14.36807 48.81546,0.0554 c 69.07851,0.0784 102.8052,0.68278 106.02297,1.89992 7.95101,3.00751 15.54378,10.67001 18.68609,18.85769 1.56715,4.08342 2.13297,12.63788 1.14927,17.37558 -1.80792,8.70727 -8.60426,17.19359 -17.1694,21.43874 l -5.07303,2.51436 -27.99488,0.38414 c -15.39719,0.21128 -49.69424,0.41197 -76.21568,0.44599 l -48.2208,0.0619 -0.39244,14.36807 c -0.21584,7.90244 -0.39245,42.04837 -0.39245,75.87986 v 61.51178 l -2.36524,5.0473 c -3.23306,6.89916 -9.1966,12.94289 -15.86759,16.08096 -4.44267,2.08985 -4.99643,2.20152 -11.79736,2.37905 -6.24778,0.1631 -7.63385,0.0128 -11.13693,-1.20732 z"
     id="path4" />
  <path
     style="fill:#f9f9f9;fill-opacity:0.4;stroke-width:0.594657"
     d="m 214.65416,461.51125 c -8.29492,-3.14566 -14.6632,-8.81254 -18.84883,-16.77283 l -2.5129,-4.77907 -0.34933,-74.88327 c -0.19213,-41.18581 -0.47129,-75.48537 -0.62037,-76.22126 l -0.27105,-1.33798 h -74.0427 -74.042701 l -4.675303,-1.80299 c -14.397273,-5.55217 -22.06497,-15.93792 -22.03337,-29.84375 0.02027,-8.91904 3.159095,-16.13445 9.716689,-22.33635 3.361088,-3.17878 6.79658,-5.14531 13.198223,-7.55488 l 3.973727,-1.49571 h 73.964045 c 40.68022,0 74.0137,-0.0669 74.07438,-0.14867 0.0607,-0.0818 0.26138,-34.13333 0.44599,-75.67015 l 0.33566,-75.521483 2.50895,-5.246426 c 6.30537,-13.185054 19.70864,-20.53384 33.54502,-18.392167 10.42063,1.612963 19.95343,9.788099 24.81498,21.280825 1.2436,2.939857 1.2496,3.271807 1.40949,77.978571 0.0883,41.26439 0.36467,75.23015 0.61411,75.47947 0.24943,0.24932 33.43132,0.6778 73.73751,0.95217 40.3062,0.27438 75.02336,0.7015 77.14926,0.94918 5.38542,0.62741 9.07997,2.65094 14.32257,7.84456 7.40443,7.33526 9.46373,12.27655 9.46373,22.70825 0,4.45992 -0.29419,6.59419 -1.27377,9.24092 -2.78014,7.51166 -8.87469,14.22514 -16.59805,18.28365 l -4.40591,2.31524 -75.95254,0.36486 c -41.77389,0.20067 -76.16489,0.57711 -76.42443,0.83654 -0.25955,0.25942 -0.55214,34.3538 -0.65022,75.76528 l -0.17831,75.29359 -2.4812,5.08447 c -3.26683,6.6944 -9.53849,13.19275 -15.57951,16.14263 -4.03069,1.96822 -4.36849,2.02789 -12.19048,2.15344 -5.55999,0.0892 -8.69308,-0.11668 -10.14336,-0.66666 z"
     id="path5" />
  <path
     style="fill:#f9f9f9;fill-opacity:0.4;stroke-width:0.594657"
     d="m 211.4007,459.69079 c -7.05542,-3.45913 -12.30693,-8.96929 -16.55675,-17.37222 l -1.55762,-3.0798 -0.12818,-54.00731 c -0.0705,-29.70401 -0.22734,-63.84145 -0.34855,-75.86096 l -0.22038,-21.85366 H 118.54466 44.500098 l -4.558992,-1.82045 C 33.762374,283.22916 31.003872,281.53902 26.793038,277.64053 20.549684,271.86029 17.656272,265.00175 17.663547,256 c 0.0069,-8.52914 2.392538,-14.62007 8.087019,-20.64746 3.704452,-3.92102 7.258938,-6.20294 13.720989,-8.80864 l 5.110536,-2.06074 h 74.043449 74.04345 l 0.005,-35.82811 c 0.003,-19.70546 0.17024,-53.89082 0.37224,-75.96748 l 0.36727,-40.13937 2.39968,-4.665663 c 4.35643,-8.470159 11.41913,-14.639973 19.60475,-17.126281 3.28656,-0.998259 5.23038,-1.191889 10.13387,-1.009458 5.48141,0.203932 6.49931,0.431031 10.54129,2.351811 5.40578,2.568871 10.90013,7.472524 14.16506,12.642181 4.76504,7.544905 4.39988,1.460337 4.64402,77.38232 0.11989,37.28502 0.37401,71.03435 0.5647,74.99851 l 0.34672,7.20756 10.2024,0.36897 c 5.61132,0.20293 33.34944,0.53349 61.64026,0.73456 28.29083,0.20108 58.26156,0.54775 66.60163,0.7704 14.81777,0.39557 15.24322,0.44153 18.6462,2.0144 3.79978,1.75628 10.93566,8.40242 13.6323,12.69671 3.00535,4.7859 4.5231,14.01095 3.41144,20.73503 -1.38947,8.40448 -8.87369,17.9568 -17.55289,22.40324 l -4.1626,2.13254 -75.93366,0.53297 c -41.7635,0.29313 -76.14957,0.74875 -76.41347,1.01248 -0.45497,0.4547 -0.59698,17.38019 -0.93117,110.98729 l -0.1433,40.13937 -2.65887,5.05459 c -3.49532,6.6447 -9.98426,13.29184 -15.58481,15.96474 -3.84726,1.83612 -4.10562,1.87477 -12.4662,1.86506 -8.51114,-0.01 -8.55037,-0.0162 -12.70011,-2.05074 z"
     id="path6" />
  <path
     style="fill:#f9f9f9;fill-opacity:1;stroke-width:0.594657"
     d="m 218.53659,461.20056 c -9.19287,-0.75328 -18.56836,-8.56267 -23.81901,-19.84022 l -1.44231,-3.09785 -0.006,-66.35842 c -0.003,-36.49713 -0.18139,-70.4149 -0.39599,-75.37282 l -0.39017,-9.01441 H 118.80497 45.126639 l -5.136633,-2.12632 c -6.425115,-2.65968 -10.410948,-5.2864 -14.363791,-9.46595 -10.282227,-10.87194 -10.284275,-28.55822 -0.0046,-39.79742 3.813222,-4.16915 7.341989,-6.50707 14.284486,-9.46393 l 5.118636,-2.18006 H 118.84687 192.669 l 0.004,-9.36585 c 0.009,-21.4824 0.61968,-108.81256 0.87575,-125.166808 0.30868,-19.714202 0.11318,-18.711655 5.07473,-26.024834 5.11045,-7.53267 13.55111,-12.928514 21.30726,-13.621047 10.32436,-0.921843 16.78011,1.094602 23.77749,7.426876 3.72358,3.36964 7.86388,8.826368 9.08013,11.96719 1.25598,3.243426 1.67551,17.067912 1.80984,59.639293 0.17437,55.2577 0.68775,94.33367 1.24669,94.89156 0.57352,0.57244 35.90078,1.23574 92.92189,1.7447 55.45308,0.49496 60.15414,0.69003 64.223,2.66498 3.62903,1.76147 12.14727,10.04574 13.9042,13.52232 2.12345,4.20183 3.18061,9.98157 2.92653,16.00017 -0.20518,4.86027 -0.47154,5.92483 -2.52948,10.10918 -2.82359,5.74112 -9.4937,12.68037 -14.89591,15.49697 l -3.56794,1.86025 -19.02904,0.34625 c -10.46597,0.19044 -42.30987,0.48621 -70.76423,0.65727 -28.45435,0.17106 -54.32917,0.47361 -57.49958,0.67234 l -5.7644,0.36133 -0.31089,3.04772 c -0.17099,1.67625 -0.47745,35.68333 -0.68101,75.57129 l -0.37011,72.52357 -1.51613,2.99792 c -3.99653,7.90252 -10.38071,14.80499 -16.35506,17.68283 -3.484,1.67823 -10.39256,2.33528 -17.99991,1.71193 z"
     id="path7" />
  <path
     style="fill:#f9f9f9;fill-opacity:1;stroke-width:0.594657"
     d="m 215.63331,460.53582 c -7.39529,-1.86575 -15.75503,-9.3994 -20.00117,-18.0247 l -2.38429,-4.84329 -0.0628,-72.25087 c -0.0346,-39.73798 -0.19176,-73.52195 -0.3493,-75.0755 l -0.28647,-2.82462 H 119.27145 45.993665 l -3.80617,-1.54658 c -6.914378,-2.80957 -10.519044,-4.91705 -14.132934,-8.26288 -6.776451,-6.27379 -9.620182,-12.68426 -9.620182,-21.68625 0,-12.57759 6.250091,-21.62807 19.378334,-28.06091 l 6.489261,-3.17973 74.183506,-0.1555 74.18351,-0.1555 0.0743,-6.83172 c 0.0409,-3.75745 0.13818,-8.37041 0.21621,-10.25101 0.078,-1.8806 0.2318,-23.08757 0.34169,-47.1266 0.1099,-24.03902 0.3471,-53.61468 0.52711,-65.723677 l 0.3273,-22.016362 2.04098,-4.144279 c 2.73327,-5.549998 9.54967,-12.414717 14.98365,-15.089855 7.64035,-3.761332 18.02978,-3.893653 25.32877,-0.32259 4.01081,1.962304 12.21421,9.838476 14.62482,14.041438 2.38495,4.15822 2.71169,9.472248 3.06658,49.872515 0.79948,91.0126 0.95888,104.14566 1.28375,105.77002 0.32326,1.61632 0.57429,1.75653 3.70192,2.06753 4.27787,0.42539 29.88854,0.86359 92.25641,1.5785 27.30964,0.31304 51.86387,0.82513 54.56497,1.13798 2.7011,0.31285 5.91225,1.03655 7.13589,1.60822 1.22364,0.57168 4.65631,3.45978 7.62815,6.41802 6.97218,6.94028 8.07294,9.47865 8.43913,19.46069 0.29964,8.16807 -0.391,10.91103 -4.1608,16.52518 -5.16214,7.68767 -12.97613,13.38249 -19.15647,13.96121 -1.98422,0.1858 -35.38611,0.60856 -74.22644,0.93946 -38.84033,0.33091 -71.80603,0.76439 -73.25711,0.96328 -1.53875,0.21091 -2.78173,0.73532 -2.98241,1.25828 -0.18924,0.49316 -0.47547,26.21501 -0.63607,57.15966 -0.16058,30.94465 -0.40618,64.64939 -0.54576,74.89943 l -0.25378,18.63641 -2.56385,4.49704 c -3.64485,6.39312 -9.74312,12.74365 -14.47388,15.07259 -3.54675,1.74606 -4.28855,1.88121 -11.40284,2.07748 -4.18512,0.11546 -8.64819,-0.0522 -9.91793,-0.37251 z"
     id="path8" />
</svg>
