<?xml version="1.0" encoding="UTF-8" standalone="no"?>
<svg
   viewBox="0 0 512 512"
   version="1.1"
   id="svg2"
   sodipodi:docname="repeat.svg"
   inkscape:version="1.3.2 (091e20e, 2023-11-25, custom)"
   xmlns:inkscape="http://www.inkscape.org/namespaces/inkscape"
   xmlns:sodipodi="http://sodipodi.sourceforge.net/DTD/sodipodi-0.dtd"
   xmlns="http://www.w3.org/2000/svg"
   xmlns:svg="http://www.w3.org/2000/svg">
  <sodipodi:namedview
     id="namedview2"
     pagecolor="#505050"
     bordercolor="#ffffff"
     borderopacity="1"
     inkscape:showpageshadow="0"
     inkscape:pageopacity="0"
     inkscape:pagecheckerboard="1"
     inkscape:deskcolor="#505050"
     inkscape:zoom="1.6816406"
     inkscape:cx="256"
     inkscape:cy="256"
     inkscape:window-width="1920"
     inkscape:window-height="1057"
     inkscape:window-x="-8"
     inkscape:window-y="-8"
     inkscape:window-maximized="1"
     inkscape:current-layer="svg2" />
  <!--! Font Awesome Pro 6.5.1 by @fontawesome - https://fontawesome.com License - https://fontawesome.com/license (Commercial License) Copyright 2023 Fonticons, Inc. -->
  <defs
     id="defs1">
    <style
       id="style1">.fa-secondary{opacity:.4}</style>
  </defs>
  <path
     class="fa-secondary"
     d="M480 256c17.7 0 32 14.3 32 32c0 88.4-71.6 160-160 160H192l0 32c0 12.9-7.8 24.6-19.8 29.6s-25.7 2.2-34.9-6.9l-64-64c-12.5-12.5-12.5-32.8 0-45.3l64-64c9.2-9.2 22.9-11.9 34.9-6.9s19.8 16.6 19.8 29.6v32H352c53 0 96-43 96-96c0-17.7 14.3-32 32-32z"
     id="path1"
     style="fill:#ffffff;fill-opacity:1" />
  <path
     class="fa-primary"
     d="M32 256c-17.7 0-32-14.3-32-32C0 135.6 71.6 64 160 64H320V32c0-12.9 7.8-24.6 19.8-29.6s25.7-2.2 34.9 6.9l64 64c12.5 12.5 12.5 32.8 0 45.3l-64 64c-9.2 9.2-22.9 11.9-34.9 6.9s-19.8-16.6-19.8-29.6V128H160c-53 0-96 43-96 96c0 17.7-14.3 32-32 32z"
     id="path2"
     style="fill:#ffffff;fill-opacity:1" />
</svg>
